<?xml version="1.0" standalone="no"?>
<!DOCTYPE svg PUBLIC "-//W3C//DTD SVG 20010904//EN"
 "http://www.w3.org/TR/2001/REC-SVG-20010904/DTD/svg10.dtd">
<svg version="1.0" xmlns="http://www.w3.org/2000/svg"
 width="446.000000pt" height="464.000000pt" viewBox="0 0 446.000000 464.000000"
 preserveAspectRatio="xMidYMid meet">

<g transform="translate(0.000000,464.000000) scale(0.100000,-0.100000)"
fill="#000000" stroke="none">
<path d="M2120 3914 c-109 -29 -190 -99 -238 -202 -20 -45 -26 -77 -30 -159
-4 -89 -2 -106 13 -123 10 -11 28 -20 39 -20 44 0 51 14 57 122 8 142 45 210
144 261 85 44 207 22 279 -49 52 -53 69 -100 75 -212 6 -108 13 -122 57 -122
38 0 54 31 54 103 0 219 -113 372 -302 407 -65 13 -81 12 -148 -6z"/>
<path d="M1582 3299 c-80 -40 -94 -77 -118 -314 -16 -161 -16 -174 0 -229 32
-109 148 -196 262 -196 17 0 71 11 118 25 138 40 211 32 285 -31 41 -34 81
-116 81 -165 0 -19 -16 -91 -36 -159 -29 -100 -35 -135 -31 -180 7 -83 41
-153 101 -208 87 -79 110 -83 418 -80 l265 3 40 28 c42 29 77 82 87 133 8 35
-108 1198 -125 1259 -16 57 -43 90 -92 114 -42 21 -56 21 -628 21 -574 0 -585
0 -627 -21z"/>
<path d="M1635 2385 c-329 -103 -345 -111 -345 -182 0 -26 8 -42 31 -64 17
-16 36 -29 41 -29 6 0 52 -19 102 -43 117 -56 159 -101 217 -238 47 -110 69
-134 127 -132 63 2 73 21 176 362 53 173 96 320 96 327 0 51 -53 95 -112 93
-18 -1 -168 -43 -333 -94z"/>
<path d="M877 1892 c-31 -34 -21 -42 53 -42 l71 0 -31 30 c-35 34 -69 38 -93
12z m71 -19 c2 -9 -8 -13 -32 -13 -34 0 -44 8 -29 24 11 11 56 2 61 -11z"/>
<path d="M1445 1900 c-3 -6 1 -7 9 -4 11 4 16 0 16 -12 0 -16 2 -16 9 -4 6 8
7 18 5 22 -7 11 -32 10 -39 -2z"/>
<path d="M1394 1874 c-10 -8 -14 -13 -7 -10 6 4 13 2 15 -4 2 -6 9 -1 16 10
15 24 3 26 -24 4z"/>
<path d="M1510 1877 c8 -7 15 -22 14 -35 -1 -19 -1 -19 3 -2 3 12 9 18 16 13
7 -3 3 3 -7 15 -11 12 -24 22 -30 22 -6 0 -4 -6 4 -13z"/>
<path d="M1437 1856 c-3 -6 7 -11 23 -11 31 0 31 10 1 18 -11 2 -22 0 -24 -7z"/>
<path d="M860 1831 c0 -12 40 -41 56 -41 19 0 60 38 51 47 -5 4 -13 0 -18 -10
-12 -21 -57 -23 -65 -2 -7 16 -24 21 -24 6z"/>
<path d="M1455 1831 c-3 -5 -2 -12 3 -15 5 -3 9 1 9 9 0 17 -3 19 -12 6z"/>
<path d="M1012 1817 c-24 -7 -49 -19 -55 -27 -7 -8 -28 -15 -47 -15 l-35 0 -3
-82 c-2 -71 -5 -83 -23 -88 -41 -13 -52 -59 -60 -257 -9 -216 -19 -247 -76
-248 -34 0 -53 -37 -53 -105 0 -102 34 -125 185 -125 186 1 225 69 225 389 0
229 -25 324 -90 351 -17 7 -30 20 -30 29 0 13 9 15 44 13 59 -5 126 23 126 52
0 12 -6 44 -13 71 -15 56 -25 61 -95 42z m83 -65 c14 -59 7 -69 -33 -53 -15 5
-38 11 -52 13 -18 2 -27 12 -34 36 -11 38 -8 42 36 52 61 15 71 10 83 -48z
m-133 -27 c18 -26 31 -35 58 -37 49 -4 44 -22 -8 -26 -31 -2 -44 1 -48 12 -11
28 -24 17 -24 -20 0 -33 -2 -35 -27 -32 -26 3 -28 6 -31 57 -4 68 1 81 33 81
17 0 32 -10 47 -35z"/>
<path d="M1353 1823 c-17 -6 -16 -40 1 -46 7 -3 16 -24 20 -46 3 -23 15 -50
26 -61 20 -20 20 -20 -10 -35 -18 -9 -28 -21 -24 -27 4 -7 3 -8 -4 -4 -7 4
-12 13 -12 20 0 7 -9 21 -21 32 -11 10 -18 26 -16 34 3 13 -1 16 -21 12 -17
-3 -23 -1 -18 7 4 6 2 11 -3 11 -18 0 -12 -13 19 -44 16 -15 33 -41 39 -56 8
-24 5 -32 -21 -56 -55 -53 -99 -162 -138 -341 -59 -272 -43 -353 69 -353 57 0
90 16 116 57 l20 32 97 1 97 0 17 -30 c44 -74 191 -83 223 -13 18 39 13 137
-14 267 -45 222 -93 341 -160 392 -19 14 -35 33 -35 41 0 8 16 34 35 57 24 29
35 53 35 75 0 34 -19 42 -27 11 -3 -11 -10 -17 -15 -14 -5 3 -7 12 -4 20 3 8
2 14 -3 14 -14 0 -24 -71 -12 -83 7 -7 2 -19 -14 -39 -14 -17 -22 -34 -19 -40
5 -8 -52 16 -65 28 -2 2 6 15 18 29 11 15 24 43 27 64 4 20 14 41 23 48 23 16
8 25 -43 27 -54 1 -47 -11 9 -17 24 -3 14 -4 -25 -4 -36 0 -71 6 -79 11 -11 8
-13 8 -7 -1 5 -10 -5 -13 -41 -12 l-48 2 40 7 40 7 -35 2 c-27 1 -31 4 -20 11
16 10 4 12 -17 3z m87 -61 c0 -13 -12 -22 -22 -16 -10 6 -1 24 13 24 5 0 9 -4
9 -8z m70 -7 c0 -8 -4 -15 -10 -15 -5 0 -10 7 -10 15 0 8 5 15 10 15 6 0 10
-7 10 -15z m147 -7 c-3 -8 -6 -5 -6 6 -1 11 2 17 5 13 3 -3 4 -12 1 -19z m-3
-33 c-4 -8 -15 -15 -25 -15 -10 0 -19 7 -19 15 0 9 9 15 25 15 18 0 23 -4 19
-15z m-166 -17 c-3 -7 -13 -13 -23 -13 -10 0 -20 6 -22 13 -3 7 5 12 22 12 17
0 25 -5 23 -12z m-68 -78 c0 -5 -4 -10 -10 -10 -5 0 -10 5 -10 10 0 6 5 10 10
10 6 0 10 -4 10 -10z m79 -358 c5 -20 13 -54 17 -74 l6 -38 -47 0 -47 0 7 48
c9 60 32 115 45 107 5 -3 14 -23 19 -43z"/>
<path d="M3080 1794 c-25 -12 -59 -23 -77 -23 -29 -1 -32 -4 -38 -43 -8 -48 8
-68 57 -68 15 0 28 -5 28 -10 0 -11 -7 -14 -53 -24 -43 -10 -67 -40 -67 -86 0
-61 33 -90 102 -90 66 0 95 -8 102 -27 8 -21 -21 -83 -88 -188 -85 -135 -110
-191 -111 -250 0 -49 1 -51 40 -70 36 -18 60 -20 260 -20 188 0 227 3 266 18
55 21 74 55 64 110 -9 46 -21 56 -81 63 -81 9 -94 13 -94 32 0 9 34 78 75 152
111 202 131 311 64 346 -25 12 -28 18 -18 30 6 8 18 14 25 14 16 0 20 65 5 74
-5 3 -42 11 -82 17 -41 6 -96 22 -124 36 -71 37 -190 40 -255 7z m134 0 c12
-30 6 -34 -54 -34 -46 0 -60 3 -60 15 0 8 10 17 23 19 55 12 63 14 73 15 7 0
15 -6 18 -15z m89 -6 c41 -16 33 -28 -18 -28 -25 0 -45 4 -45 9 0 5 -3 17 -7
26 -6 18 7 17 70 -7z m-198 -96 c12 -8 13 -22 2 -40 -6 -9 -13 -9 -28 -1 -20
10 -20 11 -2 26 10 8 12 11 4 7 -9 -5 -12 -3 -7 4 8 14 17 15 31 4z m395 -20
c-1 -27 -55 -40 -64 -16 -3 8 -1 14 5 14 6 0 8 4 5 9 -4 5 0 11 6 14 14 5 48
-10 48 -21z m-147 -29 c-40 -2 -106 -2 -145 0 -40 1 -8 3 72 3 80 0 112 -2 73
-3z"/>
<path d="M1260 1756 c0 -19 6 -25 30 -28 25 -4 30 -1 30 16 0 18 -2 19 -11 6
-9 -12 -10 -11 -6 8 3 12 1 22 -4 22 -5 0 -9 -9 -9 -20 0 -11 -5 -20 -11 -20
-6 0 -8 9 -4 20 4 11 2 20 -4 20 -6 0 -11 -11 -11 -24z"/>
<path d="M2293 1713 c9 -2 23 -2 30 0 6 3 -1 5 -18 5 -16 0 -22 -2 -12 -5z"/>
<path d="M2260 1691 c0 -11 -5 -23 -11 -27 -8 -5 -8 -9 1 -14 15 -9 90 9 90
22 0 5 -6 5 -16 0 -18 -10 -62 -3 -46 7 6 4 4 11 -4 19 -12 11 -14 9 -14 -7z"/>
<path d="M1954 1604 c-66 -32 -85 -112 -85 -359 0 -243 19 -328 81 -360 35
-18 99 -20 134 -3 35 15 64 80 72 161 l7 67 52 0 53 0 7 -57 c16 -134 51 -183
131 -183 107 0 140 53 156 249 14 160 -1 358 -31 425 -25 57 -64 79 -134 74
-37 -2 -58 -10 -76 -26 -14 -13 -27 -19 -29 -13 -2 5 -10 7 -18 4 -11 -4 -12
-9 -3 -19 6 -8 15 -11 20 -8 11 6 11 1 3 -20 -3 -9 -18 -16 -33 -17 l-26 0 24
-10 c22 -9 23 -13 17 -56 -3 -25 -6 -54 -6 -64 0 -16 -8 -19 -49 -19 -44 0
-50 2 -48 20 1 11 6 20 12 20 6 0 7 3 0 8 -5 4 -16 18 -23 31 -12 20 -12 25 0
32 7 5 8 9 2 9 -6 0 -16 18 -23 39 -23 80 -108 114 -187 75z"/>
<path d="M2277 1609 c7 -7 15 -10 18 -7 3 3 -2 9 -12 12 -14 6 -15 5 -6 -5z"/>
<path d="M2684 1604 c-61 -30 -84 -127 -84 -359 0 -230 23 -330 81 -360 39
-21 98 -19 136 5 50 30 64 91 70 305 6 190 -5 302 -34 363 -27 57 -105 78
-169 46z"/>
<path d="M2220 1531 c0 -5 -12 -12 -27 -14 -26 -4 -26 -4 5 -6 22 -1 32 3 32
14 0 8 -2 15 -5 15 -3 0 -5 -4 -5 -9z"/>
<path d="M2213 1493 c9 -2 23 -2 30 0 6 3 -1 5 -18 5 -16 0 -22 -2 -12 -5z"/>
<path d="M2262 1480 c0 -14 2 -19 5 -12 2 6 2 18 0 25 -3 6 -5 1 -5 -13z"/>
<path d="M2228 1423 c6 -2 18 -2 25 0 6 3 1 5 -13 5 -14 0 -19 -2 -12 -5z"/>
<path d="M2228 1403 c6 -2 18 -2 25 0 6 3 1 5 -13 5 -14 0 -19 -2 -12 -5z"/>
</g>
</svg>
